<?xml version="1.0" encoding="UTF-8"?>
<svg width="16px" height="16px" viewBox="0 0 16 16" version="1.1" xmlns="http://www.w3.org/2000/svg" xmlns:xlink="http://www.w3.org/1999/xlink">
    <title>jubao备份</title>
    <g id="xd-page" stroke="none" stroke-width="1" fill="none" fill-rule="evenodd">
        <g id="PC宣讲会首页" transform="translate(-360.000000, -693.000000)" fill="#FF4743">
            <g id="jubao备份" transform="translate(360.000000, 693.000000)">
                <path d="M8,0 C12.418288,0 16,3.581712 16,8 C16,12.418288 12.418288,16 8,16 C3.581712,16 0,12.418288 0,8 C0,3.581712 3.581712,0 8,0 Z M8.00009766,1.1421875 C4.21305622,1.1421875 1.14296875,4.21226557 1.14296875,7.99931422 C1.14296875,11.7863766 4.21305622,14.8564684 8.00009766,14.8564684 C11.7871528,14.8564684 14.8572266,11.7863766 14.8572266,7.99931422 C14.8572266,4.21226557 11.7871528,1.1421875 8.00009766,1.1421875 Z" id=""></path>
                <polygon id="路径-11" points="8.56874939 9.913085 7.43134766 9.913085 7.24179688 3.4125 8.75830017 3.4125"></polygon>
                <polygon id="路径-11" points="8.66347656 12.3993162 7.33652344 12.3993162 7.33652344 11.0609375 8.66347656 11.0609375"></polygon>
            </g>
        </g>
    </g>
</svg>