<?xml version="1.0" encoding="UTF-8"?>
<svg width="44px" height="44px" viewBox="0 0 44 44" version="1.1" xmlns="http://www.w3.org/2000/svg" xmlns:xlink="http://www.w3.org/1999/xlink">
    <title>编组 16</title>
    <defs>
        <linearGradient x1="50%" y1="0%" x2="50%" y2="100%" id="linearGradient-1">
            <stop stop-color="#7EE1E0" offset="0%"></stop>
            <stop stop-color="#24C6CB" offset="100%"></stop>
        </linearGradient>
        <circle id="path-2" cx="18" cy="18" r="18"></circle>
        <filter x="-19.4%" y="-13.9%" width="138.9%" height="138.9%" filterUnits="objectBoundingBox" id="filter-3">
            <feOffset dx="0" dy="2" in="SourceAlpha" result="shadowOffsetOuter1"></feOffset>
            <feGaussianBlur stdDeviation="2" in="shadowOffsetOuter1" result="shadowBlurOuter1"></feGaussianBlur>
            <feColorMatrix values="0 0 0 0 0.168627451   0 0 0 0 0.784313725   0 0 0 0 0.803921569  0 0 0 0.37347028 0" type="matrix" in="shadowBlurOuter1"></feColorMatrix>
        </filter>
    </defs>
    <g id="5、个人中心" stroke="none" stroke-width="1" fill="none" fill-rule="evenodd">
        <g id="个人中心" transform="translate(-489.000000, -629.000000)">
            <g id="编组-16" transform="translate(493.000000, 631.000000)">
                <g id="椭圆形备份-15">
                    <use fill="black" fill-opacity="1" filter="url(#filter-3)" xlink:href="#path-2"></use>
                    <use fill="url(#linearGradient-1)" fill-rule="evenodd" xlink:href="#path-2"></use>
                </g>
                <g id="编组" transform="translate(9.000000, 9.000000)" fill="#FFFFFF" fill-rule="nonzero">
                    <path d="M0,6.15897374 L0,5.31519003 C0.0043170644,5.28281981 0.010792661,5.25044959 0.0151097254,5.21807937 C0.0453291762,4.95911761 0.0712315625,4.69799784 0.10792661,4.43903609 C0.168365511,4.02685529 0.317304233,3.63841266 0.46192589,3.25428606 C0.798656913,2.35655197 1.33828996,1.59261479 2.07650797,0.97973864 C2.60318983,0.543819686 3.20757885,0.246013667 3.87672383,0.0906366143 C4.05156494,0.0496343364 4.22856458,0.0302122048 4.40556422,0 L4.83511212,0 C4.95598993,0.00863205851 5.07686773,0.0107900731 5.195587,0.0258961755 C5.70068354,0.0949526436 6.18419475,0.230907565 6.6504377,0.446709028 C7.00011992,0.608560125 7.33253388,0.796307397 7.63472838,1.03368901 C8.07075189,1.37465532 8.43986089,1.78683611 8.82407963,2.18175279 C8.8694088,2.22922911 8.90394532,2.28533749 8.94711596,2.34144587 C9.00539633,2.27023139 9.05288404,2.20117492 9.10900588,2.14075051 C9.29463965,1.94652919 9.48027341,1.75662391 9.66806572,1.5645606 C10.1278331,1.10058746 10.6372467,0.714302841 11.2416357,0.446709028 C11.7121957,0.237381609 12.1957069,0.0949526436 12.7051205,0.0258961755 C12.8238398,0.00863205851 12.9468761,0.00863205851 13.0655954,0 L13.4951433,0 C13.5404725,0.00647404388 13.5879602,0.0151061024 13.6332894,0.0215801463 C14.4664828,0.129480878 15.1960667,0.476921232 15.8436263,0.999160772 C16.3811009,1.43292171 16.7761122,1.98753147 17.1257945,2.57666946 C17.3912939,3.02337849 17.52944,3.51756384 17.6826958,4.00527515 C17.833793,4.48435439 17.8748051,4.98285577 17.8920734,5.48351517 C17.9115002,6.0640211 17.8899149,6.64668505 17.7409761,7.20776885 C17.5877204,7.78395876 17.4107207,8.35799065 17.1150018,8.8823882 C16.9552704,9.16508812 16.8128073,9.46289414 16.6163809,9.71753986 C16.3292961,10.0908764 16.0011992,10.4318427 15.6903705,10.7879151 C15.688212,10.7900731 15.6795779,10.7879151 15.6687852,10.7900731 L15.6687852,10.7015945 C15.6709438,9.88802302 15.6709438,9.0744515 15.6731023,8.26087999 C15.6731023,8.114135 15.655834,8.09902889 15.5133709,8.09902889 C14.7125555,8.10118691 13.91174,8.10334492 13.1130831,8.10334492 C12.8626934,8.10334492 12.8497422,8.114135 12.8497422,8.36230668 L12.8497422,11.1677257 C12.8497422,11.2691524 12.8475836,11.3727371 12.8389495,11.4741638 C12.8303154,11.5755905 12.7806691,11.6209088 12.6813767,11.6338569 C12.6468401,11.6381729 12.6101451,11.6381729 12.5734501,11.6381729 C11.6301715,11.6360149 10.6868929,11.6316988 9.74145581,11.6295408 C9.62921214,11.6295408 9.58388296,11.6683851 9.58388296,11.7719698 L9.58388296,14.603285 C9.58388296,14.6982376 9.62489507,14.7370819 9.72202902,14.7370819 C10.427869,14.7349239 11.1358676,14.7327659 11.8417076,14.7284498 L12.2302434,14.7284498 C12.1201583,14.8579307 12.0230243,14.9723055 11.9237319,15.0845222 C11.198465,15.8980938 10.4731982,16.7116653 9.74361434,17.5209208 C9.56445617,17.7194581 9.35507855,17.8791512 9.08957909,17.9525237 C9.06583523,17.9589977 9.04640844,17.9827359 9.02482312,18 L8.85861614,18 C8.84350642,17.9848939 8.82839669,17.9611557 8.81112843,17.9546817 C8.52836071,17.8769932 8.31034896,17.702194 8.12039813,17.4907085 C7.46420434,16.7612996 6.80369349,16.0340487 6.1539753,15.2960077 C4.70560019,13.6516005 3.25938362,12.0007193 1.81532558,10.3519962 C1.58004557,10.0822443 1.32533877,9.82112457 1.13538794,9.52116053 C0.818083703,9.01834312 0.550425711,8.48747153 0.369109006,7.91559765 C0.226645881,7.46673061 0.0798656913,7.02002158 0.0388535796,6.54525836 C0.0280609186,6.41361947 0.0129511932,6.28629661 0,6.15897374 Z" id="路径"></path>
                    <path d="M18,13.8889821 C17.9525123,13.9040882 17.9050246,13.9299844 17.8553783,13.9299844 C16.9639045,13.9299844 16.0724307,13.9256684 15.1809569,13.9235104 L15.1636887,13.9235104 C14.9672623,13.9235104 14.9305672,13.9558806 14.9305672,14.1544179 L14.9305672,17.2015346 C14.9305672,17.408704 14.9305672,17.4000719 14.7233481,17.3957559 C14.4535316,17.3892819 14.1815565,17.3935979 13.91174,17.3957559 C13.8513011,17.3957559 13.7908622,17.3979139 13.7304233,17.4000719 C13.5901187,17.4000719 13.5577407,17.3720177 13.5577407,17.2317468 L13.5577407,16.1548975 C13.5577407,15.498861 13.5598993,14.8406666 13.5598993,14.1846301 C13.5598993,13.9494065 13.5361554,13.9256684 13.2987169,13.9256684 L10.5832834,13.9321424 C10.423552,13.9321424 10.4127593,13.9213524 10.4127593,13.7638173 L10.4127593,12.5876993 C10.4127593,12.4690085 10.4429788,12.4387963 10.557381,12.4387963 C11.4790742,12.4409543 12.4007675,12.4431123 13.3224607,12.4474284 C13.3526802,12.4474284 13.3828996,12.4495864 13.4131191,12.4452704 C13.5080945,12.4344803 13.5512651,12.39132 13.5555822,12.2963673 C13.5598993,12.2057307 13.5598993,12.1150941 13.5598993,12.0222995 L13.5598993,9.26651481 C13.5598993,9.02697518 13.5620578,9.02481717 13.8059719,9.02481717 C14.1340688,9.02481717 14.4621657,9.02481717 14.7902626,9.02265915 C14.9154575,9.02265915 14.9305672,9.03344923 14.9305672,9.15645606 C14.9305672,9.71969788 14.9305672,10.2829397 14.9284087,10.8461815 C14.9284087,11.3036806 14.9284087,11.7611797 14.9262501,12.2208368 C14.9262501,12.248891 14.9262501,12.2769452 14.9305672,12.3028414 C14.9413599,12.399952 14.9802135,12.4409543 15.0795059,12.4431123 C15.3644322,12.4452704 15.6471999,12.4452704 15.9321262,12.4452704 C16.5796858,12.4431123 17.229404,12.4409543 17.8769637,12.4431123 C17.9158172,12.4431123 17.9546708,12.4733245 17.9935244,12.4884306 C18,12.9524038 18,13.420693 18,13.8889821 L18,13.8889821 Z" id="路径"></path>
                </g>
            </g>
        </g>
    </g>
</svg>