<?xml version="1.0" encoding="UTF-8"?>
<svg width="44px" height="44px" viewBox="0 0 44 44" version="1.1" xmlns="http://www.w3.org/2000/svg" xmlns:xlink="http://www.w3.org/1999/xlink">
    <title>编组 4</title>
    <defs>
        <linearGradient x1="50%" y1="0%" x2="50%" y2="100%" id="linearGradient-1">
            <stop stop-color="#D5C5FF" offset="0%"></stop>
            <stop stop-color="#8351FC" offset="100%"></stop>
        </linearGradient>
        <circle id="path-2" cx="18" cy="18" r="18"></circle>
        <filter x="-19.4%" y="-13.9%" width="138.9%" height="138.9%" filterUnits="objectBoundingBox" id="filter-3">
            <feOffset dx="0" dy="2" in="SourceAlpha" result="shadowOffsetOuter1"></feOffset>
            <feGaussianBlur stdDeviation="2" in="shadowOffsetOuter1" result="shadowBlurOuter1"></feGaussianBlur>
            <feColorMatrix values="0 0 0 0 0.545098039   0 0 0 0 0.360784314   0 0 0 0 0.988235294  0 0 0 0.38 0" type="matrix" in="shadowBlurOuter1"></feColorMatrix>
        </filter>
    </defs>
    <g id="5、个人中心" stroke="none" stroke-width="1" fill="none" fill-rule="evenodd">
        <g id="个人中心" transform="translate(-482.000000, -523.000000)">
            <g id="编组-4" transform="translate(486.000000, 525.000000)">
                <g id="椭圆形备份-12">
                    <use fill="black" fill-opacity="1" filter="url(#filter-3)" xlink:href="#path-2"></use>
                    <use fill="url(#linearGradient-1)" fill-rule="evenodd" xlink:href="#path-2"></use>
                </g>
                <g id="编组" transform="translate(10.000000, 8.000000)" fill="#FFFFFF" fill-rule="nonzero">
                    <path d="M10.1268482,0 L1.19792443,0 C0.537916054,0 0,0.547337278 0,1.21894069 L0,18.7810593 C0,19.4526627 0.537916054,20 1.19792443,20 L14.802104,20 C15.4621123,20 16,19.4526627 16,18.7810593 L16,5.97633136 L10.1268482,0 Z M5.63762715,2.54732572 C6.69304429,2.54732572 7.5478609,3.41715976 7.5478609,4.49111848 C7.5478609,5.5650772 6.69304429,6.43491124 5.63762715,6.43491124 C4.58221001,6.43491124 3.7273934,5.5650772 3.7273934,4.49111848 C3.7273934,3.41715976 4.57931387,2.54732572 5.63762715,2.54732572 Z M5.63762715,6.74556213 C7.11755645,6.74556213 8.32124477,7.84023669 8.32124477,9.18344351 C8.32124477,9.52070428 8.05377741,9.79289941 7.72231095,9.79289941 C7.3908445,9.79289941 7.12337713,9.52073317 7.12337713,9.18344351 C7.12337713,8.52365708 6.44301057,7.96447393 5.63762715,7.96447393 C4.83224373,7.96447393 4.15190556,8.52365708 4.15190556,9.18344351 C4.15190556,9.52070428 3.8844098,9.79289941 3.55294335,9.79289941 C3.22147689,9.79289941 2.95400953,9.52073317 2.95400953,9.18344351 C2.95400953,7.83728966 4.15772624,6.74556213 5.63762715,6.74556213 L5.63762715,6.74556213 Z M12.478971,16.7100534 L3.51810445,16.7100534 C3.18953413,16.7100534 2.91914223,16.4349112 2.91914223,16.1005975 C2.91914223,15.7662837 3.18953413,15.4911127 3.51810445,15.4911127 L12.4761033,15.4911127 C12.8046452,15.4911127 13.0750606,15.7662837 13.0750606,16.1005975 C13.0779616,16.4349112 12.8075697,16.7100534 12.4789994,16.7100534 L12.478971,16.7100534 Z M12.478971,13.6242604 L3.51810445,13.6242604 C3.18953413,13.6242604 2.91914223,13.3491182 2.91914223,13.0148045 C2.91914223,12.6804907 3.18953413,12.4053197 3.51810445,12.4053197 L12.4761033,12.4053197 C12.8046452,12.4053197 13.0750371,12.6804618 13.0750371,13.0148045 C13.0750371,13.3491471 12.8075697,13.6242604 12.4789994,13.6242604 L12.478971,13.6242604 Z M11.112474,5.32544379 C11.002023,5.32544379 10.9060528,5.22778754 10.9060528,5.11539617 L10.9060528,2.51773992 L13.6652825,5.32544379 L11.112474,5.32544379 L11.112474,5.32544379 Z" id="形状"></path>
                    <path d="M5.63765554,5.36982249 C6.11449704,5.36982249 6.50118898,4.97630825 6.50118898,4.49111848 C6.50118898,4.00592872 6.11446865,3.61241448 5.63765554,3.61241448 C5.16084244,3.61241448 4.77412211,4.00592872 4.77412211,4.49111848 C4.77412211,4.97630825 5.16084244,5.36982249 5.63765554,5.36982249 Z" id="路径"></path>
                </g>
            </g>
        </g>
    </g>
</svg>