<?xml version="1.0" encoding="UTF-8"?>
<svg width="14px" height="15px" viewBox="0 0 14 15" version="1.1" xmlns="http://www.w3.org/2000/svg" xmlns:xlink="http://www.w3.org/1999/xlink">
    <title>消息通知</title>
    <g id="毕信网站内信" stroke="none" stroke-width="1" fill="none" fill-rule="evenodd">
        <g id="消息通知-看过我" transform="translate(-380.000000, -149.000000)" fill-rule="nonzero">
            <g id="消息通知" transform="translate(380.000000, 149.000000)">
                <rect id="矩形" fill="#000000" opacity="0" x="0" y="0" width="14" height="14"></rect>
                <path d="M13.777809,1.816304 C13.7227417,1.48215198 13.5299907,1.3 13.1993128,1.3 L0.772910243,1.3 C0.745361357,1.3 0.690278788,1.3 0.635211422,1.33011843 C0.332112858,1.39085811 0.194444444,1.60358105 0.194444444,1.96830403 L0.194444444,10.229587 C0.277030289,10.5637558 0.469796476,10.8070497 0.772910243,10.8979078 L7.79894051,10.8979078 L7.79894051,13.631763 C7.88155676,13.9959664 8.07470304,14.2087229 8.40515284,14.3 C8.57059819,14.269429 8.71935002,14.2200194 8.84593502,14.0571754 L11.2982876,10.8979078 L13.1993128,10.8979078 C13.2268617,10.8979078 13.2821267,10.8979078 13.3372093,10.8677726 C13.6403078,10.8070497 13.8055556,10.5943435 13.8055556,10.229587 L13.8055556,1.96832079 C13.8055556,1.93774983 13.8055556,1.87702691 13.7778242,1.816304 L13.777809,1.816304 Z M8.22863928,8.37520003 C8.16194118,8.41222374 8.09524307,8.41222374 8.06188642,8.41222374 L8.06188642,8.41225726 L2.85707776,8.41225726 C2.48998733,8.30170569 2.25632351,8.00761102 2.15625355,7.60296479 C2.15625355,7.16188144 2.32300641,6.9042574 2.69006643,6.83072954 C2.75699259,6.79370583 2.82367549,6.79370583 2.85704735,6.79370583 L8.06191683,6.79370583 C8.46259196,6.79370583 8.69598212,7.01480897 8.76266502,7.4188686 C8.79626493,7.49239645 8.79626493,7.56589079 8.79626493,7.60294802 C8.79626493,8.04463474 8.59595777,8.30167217 8.22862408,8.37520003 L8.22863928,8.37520003 Z M8.22863928,5.05432869 C8.16194118,5.09138593 8.09524307,5.09138593 8.06188642,5.09138593 L2.85707776,5.09138593 C2.48998733,4.98083436 2.25632351,4.6861866 2.15625355,4.28207669 C2.15625355,3.84040674 2.32300641,3.58279945 2.69006643,3.50927159 C2.75699259,3.47285125 2.82367549,3.47285125 2.85704735,3.47285125 L8.06191683,3.47285125 C8.46259196,3.47285125 8.69598212,3.69335102 8.76266502,4.09801402 C8.79626493,4.17154188 8.79626493,4.24506974 8.79626493,4.28207669 C8.79626493,4.72321031 8.59595777,4.9808176 8.22862408,5.05432869 L8.22863928,5.05432869 Z M10.6979591,8.37523355 C10.6310025,8.41227402 10.5643044,8.41227402 10.5309934,8.41227402 C10.1305463,8.41227402 9.89715613,8.19170721 9.83026038,7.78701069 C9.79687332,7.71353312 9.79687332,7.63943541 9.79687332,7.60298155 C9.79687332,7.16188144 9.9972717,6.90424064 10.3642405,6.83072954 C10.4309386,6.79368907 10.4976519,6.79368907 10.5310086,6.79368907 C10.9314252,6.79368907 11.1650739,7.01480897 11.231772,7.41885184 C11.2651286,7.49237969 11.2651286,7.56587403 11.2651286,7.60293126 C11.265083,8.04463474 11.0650495,8.30167217 10.6979591,8.37525031 L10.6979591,8.37523355 Z M10.6979591,5.05431193 C10.6310025,5.09136917 10.5643044,5.09136917 10.5309934,5.09136917 C10.1305463,5.09136917 9.89715613,4.87026603 9.83026038,4.46561979 C9.79687332,4.39209193 9.79687332,4.31858083 9.79687332,4.28209345 C9.79687332,3.84040674 9.9972717,3.58279945 10.3642405,3.50927159 C10.4309386,3.47285125 10.4976519,3.47285125 10.5310086,3.47285125 C10.9314252,3.47285125 11.1650739,3.69335102 11.231772,4.09801402 C11.2651286,4.17154188 11.2651286,4.24506974 11.2651286,4.28207669 C11.265083,4.72321031 11.0650495,4.98083436 10.6979591,5.05431193 L10.6979591,5.05431193 Z" id="形状" fill="#FFFFFF"></path>
            </g>
        </g>
    </g>
</svg>