<?xml version="1.0" encoding="UTF-8"?>
<svg width="44px" height="44px" viewBox="0 0 44 44" version="1.1" xmlns="http://www.w3.org/2000/svg" xmlns:xlink="http://www.w3.org/1999/xlink">
    <title>编组 3</title>
    <defs>
        <linearGradient x1="50%" y1="0%" x2="50%" y2="100%" id="linearGradient-1">
            <stop stop-color="#F8CBBA" offset="0%"></stop>
            <stop stop-color="#F66B21" offset="100%"></stop>
        </linearGradient>
        <circle id="path-2" cx="18" cy="18" r="18"></circle>
        <filter x="-19.4%" y="-13.9%" width="138.9%" height="138.9%" filterUnits="objectBoundingBox" id="filter-3">
            <feOffset dx="0" dy="2" in="SourceAlpha" result="shadowOffsetOuter1"></feOffset>
            <feGaussianBlur stdDeviation="2" in="shadowOffsetOuter1" result="shadowBlurOuter1"></feGaussianBlur>
            <feColorMatrix values="0 0 0 0 0.964705882   0 0 0 0 0.435294118   0 0 0 0 0.152941176  0 0 0 0.38319493 0" type="matrix" in="shadowBlurOuter1"></feColorMatrix>
        </filter>
    </defs>
    <g id="5、个人中心" stroke="none" stroke-width="1" fill="none" fill-rule="evenodd">
        <g id="个人中心" transform="translate(-391.000000, -523.000000)">
            <g id="编组-3" transform="translate(395.000000, 525.000000)">
                <g id="椭圆形">
                    <use fill="black" fill-opacity="1" filter="url(#filter-3)" xlink:href="#path-2"></use>
                    <use fill="url(#linearGradient-1)" fill-rule="evenodd" xlink:href="#path-2"></use>
                </g>
                <g id="编组" transform="translate(8.000000, 8.000000)" fill="#FFFFFF" fill-rule="nonzero">
                    <path d="M18.313253,11.3414634 C18.5542169,11.7073171 18.9156626,11.9512195 19.3975904,12.0731707 C19.5180723,12.0731707 19.6385542,12.195122 19.6385542,12.195122 C19.7590361,12.3170732 20,12.5609756 20,12.8048781 L20,13.2926829 C19.8795181,13.7804878 19.7590361,14.1463415 19.5180723,14.5121951 L19.3975904,14.7560976 C19.2771084,15 19.1566265,15.1219512 18.9156626,15.2439024 C18.7951807,15.3658537 18.5542169,15.3658537 18.4337349,15.3658537 C18.313253,15.3658537 18.1927711,15.3658537 18.0722892,15.2439024 C17.7108434,15.1219512 17.3493976,15.1219512 16.9879518,15.1219512 L17.1084337,15.1219512 L16.8674699,15.1219512 C16.5060241,15.1219512 16.2650602,15.2439024 16.0240964,15.3658537 C16.0240964,15.3658537 15.7831325,15.4878049 15.5421687,15.7317073 C15.3012048,15.9756098 15.060241,16.4634146 15.060241,16.9512195 C15.060241,17.3170732 15.060241,17.6829268 15.3012048,18.1707317 C15.4216867,18.4146341 15.4216867,18.7804878 15.1807229,19.0243903 C14.939759,19.2682927 14.6987952,19.3902439 14.4578313,19.5121951 C14.3373494,19.6341464 13.7349398,19.8780488 13.1325301,20 C13.8554217,19.8780488 13.373494,20 12.8915663,20 L12.7710843,20 C12.6506024,20 12.5301205,20 12.4096385,19.8780488 C12.2891566,19.7560976 12.1686747,19.6341464 12.1686747,19.3902439 L12.1686747,19.5121951 C11.9277108,18.902439 11.5662651,18.4146342 11.0843373,18.1707317 C11.0843373,18.0487805 10.6024096,17.9268293 10.1204819,17.9268293 C9.6385542,17.9268293 9.1566265,18.0487805 8.79518071,18.4146342 C8.31325301,18.7804878 7.95180723,19.2682927 7.83132529,19.8780488 C7.83132529,19.7560976 7.71084336,19.8780488 7.59036144,19.8780488 C7.59036144,19.8780488 7.34939759,20 7.22891565,20 C6.9879518,20 6.86746987,20 6.5060241,19.8780488 C6.26506025,19.7560976 6.0240964,19.7560976 5.78313253,19.6341464 L5.06024095,19.2682927 C4.8192771,19.1463415 4.69879517,19.0243903 4.57831325,18.7804878 C4.45783132,18.6585366 4.45783132,18.5365854 4.45783132,18.4146342 C4.45783132,18.2926829 4.45783132,18.0487805 4.57831325,17.804878 C4.69879519,17.6829268 4.8192771,17.3170732 4.8192771,16.8292683 C4.8192771,16.3414634 4.57831325,15.9756098 4.21686746,15.6097561 C3.97590361,15.3658537 3.73493976,15.2439024 3.37349398,15.1219512 L2.89156627,15.1219512 L2.77108434,15.1219512 C2.53012049,15.1219512 2.1686747,15.2439024 1.80722891,15.2439024 L1.56626506,15.2439024 C1.44578313,15.2439024 1.32530121,15.2439024 1.20481928,15.1219512 C1.08433734,15.1219512 0.963855424,14.8780488 0.722891573,14.7560976 C0.361445787,14.1463415 0.120481935,13.4146341 0,12.6829268 L0,12.5609756 C0,12.1951219 0.240963851,12.0731707 0.481927702,11.9512195 C0.963855405,11.8292683 1.32530119,11.4634146 1.68674698,11.097561 C2.04819276,10.9756097 2.16867468,10.4878049 2.1686747,10 C2.16867472,9.51219514 2.04819276,9.02439025 1.68674698,8.65853659 C1.20481928,8.17073172 0.602409638,7.80487806 0,7.68292683 C0.361445787,7.80487806 0.240963851,7.68292683 0.240963851,7.56097562 C0.120481916,7.43902439 0.120481916,7.19512196 0.120481935,7.07317073 C0.120481935,6.9512195 0.120481935,6.70731707 0.240963851,6.46341463 C0.361445787,5.97560976 0.602409638,5.48780487 0.843373489,5.12195121 C0.602409638,5.60975608 0.722891554,5.36585365 0.843373489,5.24390244 C0.843373489,5 0.963855424,4.87804878 1.08433734,4.75609757 C1.20481928,4.75609757 1.20481928,4.63414634 1.32530121,4.63414634 C1.44578315,4.63414634 1.56626506,4.63414634 1.68674698,4.75609757 C2.16867468,4.8780488 2.6506024,5 3.13253012,4.87804878 C3.61445783,4.87804878 3.97590361,4.63414634 4.3373494,4.26829268 C4.57831325,4.02439025 4.69879519,3.78048781 4.69879519,3.41463415 C4.81927712,3.41463415 4.81927712,3.17073171 4.8192771,2.92682928 L4.8192771,2.56097562 L4.8192771,2.19512195 C4.8192771,1.82926829 4.69879517,1.34146342 4.57831325,0.975609759 C4.69879519,1.58536586 4.57831325,1.34146342 4.57831325,1.09756097 L4.57831325,1.09756097 C4.8192771,0.97560974 4.93975904,0.853658532 5.18072289,0.731707325 L5.90361446,0.365853662 C6.14457831,0.243902435 6.38554216,0.243902435 6.62650602,0.121951227 C6.86746987,0 7.10843372,0 7.22891565,0 C7.4698795,0 7.59036144,0 7.71084337,0.243902435 C7.83132531,0.365853662 7.95180723,0.609756097 7.95180723,0.853658532 C8.07228916,1.09756097 8.31325301,1.3414634 8.6746988,1.70731706 C9.03614459,2.07317073 9.39759037,2.19512193 9.87951807,2.19512195 C10.3614458,2.19512197 10.8433735,2.07317073 11.2048193,1.82926829 C11.686747,1.34146342 11.9277108,0.975609759 12.0481928,0.48780487 C12.0481928,0.365853643 12.1686747,0.243902435 12.2891566,0.121951227 C12.4096386,0.121951227 12.5301205,0 12.6506024,0 C12.8915663,0 13.0120482,0 13.253012,0.121951227 C13.4939759,0.121951227 13.7349398,0.243902455 13.9759036,0.365853662 C14.2168675,0.48780489 14.4578313,0.609756097 14.5783132,0.731707325 C14.8192771,0.853658552 14.939759,1.09756099 15.060241,1.21951219 C15.060241,1.34146342 15.1807229,1.34146342 15.1807229,1.46341463 L15.1807229,1.58536586 C15.1807229,1.70731708 15.0602409,1.95121952 15.060241,2.07317073 C15.060241,2.19512195 14.939759,2.5609756 14.939759,2.80487805 L14.939759,3.17073171 C15.060241,3.65853658 15.1807229,4.02439025 15.5421687,4.39024391 C15.9036145,4.75609757 16.2650602,4.87804878 16.7469879,5 C17.2289156,5 17.7108434,5 18.0722892,4.75609757 C18.1927711,4.75609757 18.313253,4.63414634 18.4337349,4.63414634 L18.5542169,4.63414634 C18.6746988,4.63414634 18.9156626,4.75609757 19.0361446,4.87804878 C19.2771084,5.12195121 19.3975904,5.36585365 19.6385542,5.73170731 C19.7590361,6.09756097 19.8795181,6.58536584 20,6.95121952 C20,7.19512196 20,7.43902439 19.8795181,7.56097562 C19.7590361,7.68292685 19.6385542,7.80487806 19.3975904,7.92682926 C18.9156627,8.04878049 18.4337349,8.53658536 18.1927711,9.02439025 C18.0722892,9.14634148 17.9518072,9.51219512 17.9518072,10 C17.8313253,10.4878049 17.9518072,10.9756098 18.313253,11.3414634 Z M13.253012,6.70731707 C12.4096386,5.85365854 11.2048193,5.36585367 9.99999999,5.36585367 C9.39759035,5.36585367 8.79518071,5.48780489 8.19277108,5.73170731 C7.34939759,6.09756097 6.62650602,6.70731707 6.14457831,7.43902439 C6.02409638,7.31707317 5.66265061,8.17073172 5.42168674,9.02439025 C5.42168674,8.65853659 5.30120482,9.26829269 5.30120482,10 C5.30120482,10.6097561 5.42168676,11.2195122 5.66265059,11.8292683 C5.90361444,12.4390244 6.26506023,12.9268293 6.62650602,13.2926829 C6.9879518,13.7804878 7.59036144,14.0243903 8.07228916,14.2682927 C8.6746988,14.5121951 9.27710844,14.6341464 9.87951807,14.6341464 C10.4819277,14.6341464 11.0843373,14.5121951 11.686747,14.2682927 C12.5301205,13.902439 13.253012,13.2926829 13.7349398,12.5609756 C13.6144578,12.804878 13.9759036,12.3170732 14.2168675,11.7073171 C14.4578313,11.097561 14.5783132,10.4878049 14.5783132,9.87804878 C14.5783132,9.26829269 14.4578313,8.65853659 14.2168675,8.04878049 C13.8554217,7.31707317 13.253012,6.58536586 12.5301205,6.09756097 L13.253012,6.70731707 Z" id="形状"></path>
                </g>
            </g>
        </g>
    </g>
</svg>