<svg xmlns="http://www.w3.org/2000/svg" xmlns:xlink="http://www.w3.org/1999/xlink" width="800" height="50" viewBox="0 0 800 50"><defs><style>.a{fill:url(#a);}.b{fill:#fff;}.c{fill:url(#b);}.d{fill:url(#c);}.e{fill:url(#d);}.f{fill:#333;font-size:18px;font-family:HelloFont-WenYiHei, HelloFont WenYiHei;}.g{fill:#61b7fd;}.h{fill:#fe5e74;}.i{fill:url(#e);}.j{fill:url(#f);}.k{fill:#fec08d;}.l{fill:#fe5f75;}.m{fill:#80e7bb;}.n{fill:url(#g);}.o{fill:url(#h);}</style><linearGradient id="a" x1="0.112" y1="0.236" x2="0.867" y2="0.826" gradientUnits="objectBoundingBox"><stop offset="0" stop-color="#abdcfd"/><stop offset="1" stop-color="#4badfd"/></linearGradient><linearGradient id="b" x1="0.129" y1="0.192" x2="0.887" y2="0.806" gradientUnits="objectBoundingBox"><stop offset="0" stop-color="#fdaebc"/><stop offset="1" stop-color="#fe4860"/></linearGradient><linearGradient id="c" x1="0.12" y1="0.203" x2="0.88" y2="0.819" gradientUnits="objectBoundingBox"><stop offset="0" stop-color="#fecdac"/><stop offset="1" stop-color="#fea54f"/></linearGradient><linearGradient id="d" x1="0.101" y1="0.209" x2="0.879" y2="0.818" gradientUnits="objectBoundingBox"><stop offset="0" stop-color="#a0f8d0"/><stop offset="1" stop-color="#41c593"/></linearGradient><linearGradient id="e" x1="-0.003" y1="0.5" x2="0.99" y2="0.5" gradientUnits="objectBoundingBox"><stop offset="0" stop-color="#61b7fd"/><stop offset="1" stop-color="#fe5e74"/></linearGradient><linearGradient id="f" x1="-0.003" y1="0.5" x2="0.99" y2="0.5" gradientUnits="objectBoundingBox"><stop offset="0" stop-color="#fe5f75"/><stop offset="1" stop-color="#fec08d"/></linearGradient><linearGradient id="g" x1="-0.003" y1="0.5" x2="0.99" y2="0.5" gradientUnits="objectBoundingBox"><stop offset="0" stop-color="#fec08d"/><stop offset="1" stop-color="#80e7bb"/></linearGradient><linearGradient id="h" x1="-0.003" y1="0.5" x2="0.99" y2="0.5" gradientUnits="objectBoundingBox"><stop offset="0" stop-color="#80e7bb"/><stop offset="1" stop-color="#5eb2f6"/></linearGradient></defs><g transform="translate(-714 -116)"><circle class="a" cx="25" cy="25" r="25" transform="translate(714 116)"/><path class="b" d="M125.813,92.427h-.6V90.348a.848.848,0,0,0-.848-.848H112.535A2.539,2.539,0,0,0,110,92.038v16.176a5.251,5.251,0,0,0,5.244,5.249h10.569a.864.864,0,0,0,.862-.862V93.292a.848.848,0,0,0-.247-.61A.869.869,0,0,0,125.813,92.427ZM111.7,92.041a.841.841,0,0,1,.839-.839h10.983v1.225H111.7v-.386Zm12.949,19.395h-9.4a3.219,3.219,0,0,1-3.216-3.222V94.457h12.62v16.979Zm-10.187-12.7h7.759a.572.572,0,0,0,.5-.624v-.567a.57.57,0,0,0-.5-.624h-7.759a.572.572,0,0,0-.5.624v.567A.572.572,0,0,0,114.458,98.734Zm0,4.387h7.759a.572.572,0,0,0,.5-.624v-.567a.57.57,0,0,0-.5-.624h-7.759a.572.572,0,0,0-.5.624v.567A.572.572,0,0,0,114.458,103.121Zm17.611-13.045h-2.921a.733.733,0,0,0-.732.732v17.546a.733.733,0,0,0,.732.732h2.921a.733.733,0,0,0,.732-.732V90.807A.733.733,0,0,0,132.069,90.076Zm-3.48,21.145,1.616,1.619a.573.573,0,0,0,.811,0l1.616-1.619a.58.58,0,0,0,.13-.21h-4.3A.544.544,0,0,0,128.589,111.22Z" transform="translate(618 39.5)"/><circle class="c" cx="25" cy="25" r="25" transform="translate(923 116)"/><path class="b" d="M125.792,70.592V69.508a.315.315,0,0,0-.32-.309h-10.26a.315.315,0,0,0-.32.309v1.084a.315.315,0,0,0,.32.309h10.26A.315.315,0,0,0,125.792,70.592Zm-10.606,2.886a.315.315,0,0,0-.32.309v1.084a.315.315,0,0,0,.32.309h4.785a.315.315,0,0,0,.32-.309V73.787a.315.315,0,0,0-.32-.309Zm3.64,13.226h-5.914V66.715H127.8v9.527a.427.427,0,0,0,.426.426h1.062a.427.427,0,0,0,.426-.426V65.649a.852.852,0,0,0-.849-.849H111.849a.852.852,0,0,0-.849.849V87.767a.852.852,0,0,0,.849.849h6.977a.427.427,0,0,0,.426-.426V87.128A.425.425,0,0,0,118.826,86.7Zm12.347-4.833-11.634-4.42a.426.426,0,0,0-.559.517l3.089,10.491a.425.425,0,0,0,.652.226l2.42-1.7,1.121,1.038a.425.425,0,0,0,.714-.288l.136-2.338a.42.42,0,0,0-.128-.328l-5.472-5.344,6.558,4.713a.425.425,0,0,0,.485.008l2.7-1.819A.427.427,0,0,0,131.173,81.871Z" transform="translate(827 64.2)"/><circle class="d" cx="25" cy="25" r="25" transform="translate(1131 116)"/><path class="b" d="M179.44,83.424h-1.271v-.013a6.74,6.74,0,0,0-.664-2.921,7.271,7.271,0,0,0-1.062-1.624l3.43-5.66a.317.317,0,0,0-.124-.442l-.978-.539a.35.35,0,0,0-.463.118l-3.2,5.291a8.461,8.461,0,0,0-1.568-.9,5.366,5.366,0,0,0,2.147-4.265,5.743,5.743,0,0,0-11.472,0,5.365,5.365,0,0,0,2.091,4.222,8.274,8.274,0,0,0-2.631,1.761,7.658,7.658,0,0,0-1.014,1.255.969.969,0,0,0,.348,1.37,1.074,1.074,0,0,0,.545.145,1.057,1.057,0,0,0,.893-.477,5.331,5.331,0,0,1,.746-.921,6.6,6.6,0,0,1,4.674-1.863c3.427,0,6.216,2.448,6.216,5.452v.013H160.452a.443.443,0,0,0-.452.431v.862a.443.443,0,0,0,.452.431H161.7v5.385a.443.443,0,0,0,.452.431h15.6a.443.443,0,0,0,.452-.431V85.148h1.243a.443.443,0,0,0,.452-.431v-.862A.443.443,0,0,0,179.44,83.424Zm-9.494-7.485a3.7,3.7,0,0,1-2.577-1.018,3.357,3.357,0,0,1,0-4.911,3.771,3.771,0,0,1,5.154,0,3.357,3.357,0,0,1,0,4.911A3.7,3.7,0,0,1,169.946,75.939Zm6.442,13.288H163.5V85.053h12.885Z" transform="translate(986 62)"/><circle class="e" cx="25" cy="25" r="25" transform="translate(1340 116)"/><path class="b" d="M21.174,23.963v-.386a16.072,16.072,0,0,1,.406-3.65l0-.007a2.4,2.4,0,0,0-.921-2.625v2.043c.016.027.032.052.048.077a.74.74,0,0,1,.15.408v.258l-1.289.537-.148-.359a8.7,8.7,0,0,0-.72-1.376,2.8,2.8,0,0,0-.522-.633,3.927,3.927,0,0,0,.36.916l.013.025.009.026c.035.1.071.193.1.273a1.442,1.442,0,0,1,.114.378c.056.259.249,1.009.436,1.736.2.8.4,1.549.449,1.8l.1.464H3.476l.1-.464c.05-.244.219-.994.4-1.788.162-.723.33-1.469.387-1.74a1.735,1.735,0,0,1,.24-.709,3.865,3.865,0,0,0,.362-.926,2.44,2.44,0,0,0-.52.6,7.159,7.159,0,0,0-.719,1.408l-.141.376-1.6-.668.418-.407c.006-.011.018-.042.028-.066s.031-.079.054-.13V17.208a2.58,2.58,0,0,0-.918,2.628,16.084,16.084,0,0,1,.4,3.644v.386H.5v-.386a13.753,13.753,0,0,0-.384-3.272l0-.01a3.926,3.926,0,0,1,.013-1.9,3.857,3.857,0,0,1,.73-1.419,5.417,5.417,0,0,1,1.622-1.329V0H20.661V15.643a5.419,5.419,0,0,1,1.622,1.329,3.851,3.851,0,0,1,.73,1.419,3.925,3.925,0,0,1,.013,1.9l0,.01a13.184,13.184,0,0,0-.384,3.272v.386ZM5.455,16.734l.019.009H5.5l.058.019a1.267,1.267,0,0,1,.831.793,2.53,2.53,0,0,1-.372,2.181.829.829,0,0,1-.239.487c-.107.344-.365,1.291-.551,2.1h12.69c-.146-.62-.337-1.308-.461-1.757-.055-.2-.1-.355-.124-.455l-.012-.047v-.025a3.185,3.185,0,0,0-.155-.328,2.92,2.92,0,0,1-.417-2.227,1.262,1.262,0,0,1,.764-.793A.767.767,0,0,1,18,16.551a1.644,1.644,0,0,1,1.1.48V7.886a11.4,11.4,0,0,1-2.647,2.144,10.09,10.09,0,0,1-3.7,1.283v.115a1.951,1.951,0,0,1-.513,1.551l-.269.262L10.9,12.213l.293-.266a.337.337,0,0,0,.095-.3L11.28,11.6V11.45a9.534,9.534,0,0,1-4.222-1.135A11.55,11.55,0,0,1,4.04,7.968v9.158a1.646,1.646,0,0,1,1.1-.48A.706.706,0,0,1,5.455,16.734ZM4.04,5.654A9.293,9.293,0,0,0,11.263,10s0,0,0,0a1.56,1.56,0,0,1-.917-.423,1.585,1.585,0,0,1,0-2.214,1.669,1.669,0,0,1,2.245,0,1.525,1.525,0,0,1,.451,1.107,1.5,1.5,0,0,1-.2.673c-.006.186-.029.383-.05.573-.005.046-.01.091-.015.136a9.89,9.89,0,0,0,6.318-4.2v-4.2H4.04ZM11.461,8.5c0,.041.024.066.107.066a.182.182,0,0,0,.107-.027c0-.04-.024-.066-.107-.066A.185.185,0,0,0,11.461,8.5Z" transform="translate(1354 129)"/><text class="f" transform="translate(815 147)"><tspan x="0" y="0">填简历</tspan></text><text class="f" transform="translate(1024 147)"><tspan x="0" y="0">投简历</tspan></text><text class="f" transform="translate(1233 147)"><tspan x="0" y="0">笔面试</tspan></text><text class="f" transform="translate(1442 147)"><tspan x="0" y="0">拿offer</tspan></text><g transform="translate(11)"><circle class="g" cx="1.5" cy="1.5" r="1.5" transform="translate(792 158)"/><circle class="h" cx="1.5" cy="1.5" r="1.5" transform="translate(866 158)"/><rect class="i" width="74" height="1" transform="translate(794 159)"/></g><g transform="translate(221)"><rect class="j" width="74" height="1" transform="translate(794 159)"/><circle class="k" cx="1.5" cy="1.5" r="1.5" transform="translate(866 158)"/><path class="l" d="M1.5,0A1.5,1.5,0,1,1,0,1.5,1.5,1.5,0,0,1,1.5,0Z" transform="translate(792 158)"/></g><g transform="translate(430)"><circle class="k" cx="1.5" cy="1.5" r="1.5" transform="translate(792 158)"/><circle class="m" cx="1.5" cy="1.5" r="1.5" transform="translate(866 158)"/><rect class="n" width="74" height="1" transform="translate(794 159)"/></g><g transform="translate(645)"><circle class="m" cx="1.5" cy="1.5" r="1.5" transform="translate(792 158)"/><circle class="g" cx="1.5" cy="1.5" r="1.5" transform="translate(866 158)"/><rect class="o" width="74" height="1" transform="translate(794 159)"/></g></g></svg>