<?xml version="1.0" encoding="UTF-8"?>
<svg width="44px" height="44px" viewBox="0 0 44 44" version="1.1" xmlns="http://www.w3.org/2000/svg" xmlns:xlink="http://www.w3.org/1999/xlink">
    <title>编组 18</title>
    <defs>
        <linearGradient x1="50%" y1="0%" x2="50%" y2="100%" id="linearGradient-1">
            <stop stop-color="#FD959F" offset="0%"></stop>
            <stop stop-color="#FC5050" offset="100%"></stop>
        </linearGradient>
        <circle id="path-2" cx="18" cy="18" r="18"></circle>
        <filter x="-19.4%" y="-13.9%" width="138.9%" height="138.9%" filterUnits="objectBoundingBox" id="filter-3">
            <feOffset dx="0" dy="2" in="SourceAlpha" result="shadowOffsetOuter1"></feOffset>
            <feGaussianBlur stdDeviation="2" in="shadowOffsetOuter1" result="shadowBlurOuter1"></feGaussianBlur>
            <feColorMatrix values="0 0 0 0 0.988235294   0 0 0 0 0.349019608   0 0 0 0 0.349019608  0 0 0 0.37729458 0" type="matrix" in="shadowBlurOuter1"></feColorMatrix>
        </filter>
    </defs>
    <g id="5、个人中心" stroke="none" stroke-width="1" fill="none" fill-rule="evenodd">
        <g id="个人中心" transform="translate(-391.000000, -736.000000)">
            <g id="编组-18" transform="translate(395.000000, 738.000000)">
                <g id="椭圆形备份-17">
                    <use fill="black" fill-opacity="1" filter="url(#filter-3)" xlink:href="#path-2"></use>
                    <use fill="url(#linearGradient-1)" fill-rule="evenodd" xlink:href="#path-2"></use>
                </g>
                <g id="编组" transform="translate(9.000000, 9.000000)" fill="#FFFFFF" fill-rule="nonzero">
                    <path d="M9.84505612,14.6154026 C8.04297147,14.3452932 8.31087812,12.281643 8.25184122,12.3115385 C8.19268942,12.341714 8.26652576,11.8764323 8.26652576,11.8764323 C9.30441694,11.2863412 9.65374347,9.64650174 9.65374347,9.64650174 L9.65374347,7.56593176 C9.65374347,7.56593176 9.27008407,5.33159037 7.61456904,5.33159037 L6.18816956,4.59122849 C4.34589204,4.59122849 4.13454041,7.56590843 4.13454041,7.56590843 C4.13454041,7.56590843 4.14929388,8.32284 4.13454041,9.47802765 C4.11978693,10.6328185 5.51088835,11.912769 5.51088835,11.912769 C5.51088835,11.912769 5.58474766,12.3778406 5.52571076,12.3478051 C5.46660492,12.3177696 5.92589314,14.3452699 4.12385446,14.6153792 C2.32176981,14.8853485 0.82985295,16.0157283 0.490155241,16.3457919 C-0.0986740136,17.1185697 0.00744991465,19 0.00744991465,19 L13.8543256,19 C13.8543256,19 13.6627832,16.6757389 13.3229935,16.3457919 C12.9832958,16.0157517 11.6470948,14.8853719 9.84505612,14.6154026 Z M15.1117954,0 C12.0747159,0 9.69922188,1.71300284 9.69922188,3.9349053 C9.69922188,5.19289504 10.4021953,6.18422943 11.6383622,6.92197751 C11.9184715,7.08881798 11.8811052,8.4247553 10.3062287,9.18182689 C10.3062287,9.18182689 12.6166649,9.49205354 14.030563,7.67694871 C14.3801883,7.72796469 14.7417634,7.75468624 15.1117954,7.75468624 C18.1489899,7.75468624 20,6.15655104 20,3.9349053 C20,1.71300284 18.1489899,0 15.1117954,0 Z" id="形状"></path>
                </g>
            </g>
        </g>
    </g>
</svg>