<?xml version="1.0" encoding="UTF-8"?>
<svg width="15px" height="15px" viewBox="0 0 15 15" version="1.1" xmlns="http://www.w3.org/2000/svg" xmlns:xlink="http://www.w3.org/1999/xlink">
    <title>切片</title>
    <g id="5、个人中心" stroke="none" stroke-width="1" fill="none" fill-rule="evenodd">
        <g id="关注收藏-关注的单位" transform="translate(-1433.000000, -402.000000)" fill="#999999" fill-rule="nonzero">
            <g id="编组-12" transform="translate(380.000000, 363.000000)">
                <g id="编组-4" transform="translate(1032.000000, 28.000000)">
                    <g id="取消关注" transform="translate(21.000000, 11.000000)">
                        <path d="M6.78619421,11.4233341 C7.23318333,11.1950727 7.76720021,11.1950727 8.21418934,11.4233341 L11.6612461,13.1835541 L11.002673,9.45524053 C10.9173431,8.9719383 11.0822863,8.47879724 11.4437674,8.13647254 L14.2326346,5.49632884 L10.3786203,4.95243016 C9.87894304,4.88175334 9.44706453,4.57680376 9.22372015,4.1369547 L7.5,0.745038725 L5.77666342,4.1369547 C5.55324442,4.57690226 5.12119942,4.88186811 4.62137968,4.95243016 L0.767365413,5.49632884 L3.55584907,8.13647254 C3.91746952,8.47872431 4.08255946,8.97187541 3.99732701,9.45524053 L3.33913747,13.1839266 L6.78619421,11.4237067 L6.78619421,11.4233341 Z M7.14290532,12.0827181 L3.69584858,13.8429381 C3.43734547,13.9749764 3.12407183,13.9529859 2.88780381,13.7862168 C2.65153579,13.6194477 2.53327095,13.336838 2.58275648,13.0572653 L3.24132958,9.32932427 C3.28399453,9.08767316 3.20152295,8.84110263 3.0207824,8.66994027 L0.231915176,6.02979655 C0.0226826639,5.83187545 -0.0526796062,5.53572792 0.0375286107,5.26592491 C0.127736828,4.9961219 0.367862665,4.79947944 0.656900036,4.75871284 L4.5109143,4.21481416 C4.76078448,4.17957202 4.9767986,4.02716466 5.08855617,3.80726271 L6.81227632,0.415346727 C6.94150049,0.161017373 7.20818452,0 7.50019178,0 C7.79219905,0 8.05888308,0.161017373 8.18810724,0.415346727 L9.91144383,3.80726271 C10.0232014,4.02716466 10.2392155,4.17957202 10.4890857,4.21481416 L14.3431,4.75871284 C14.6321373,4.79947944 14.8722632,4.9961219 14.9624714,5.26592491 C15.0526796,5.53572792 14.9773173,5.83187545 14.7680848,6.02979655 L11.9796012,8.66994027 C11.7987213,8.84102968 11.7161029,9.08761026 11.7586704,9.32932427 L12.4172435,13.0572653 C12.4667291,13.336838 12.3484642,13.6194477 12.1121962,13.7862168 C11.8759282,13.9529859 11.5626545,13.9749764 11.3041514,13.8429381 L7.85709468,12.0827181 C7.63354889,11.9685221 7.36645111,11.9685221 7.14290532,12.0827181 L7.14290532,12.0827181 Z M7.59473941,3.28497097 C7.49528106,3.25048386 7.38558287,3.25735114 7.29150584,3.30395389 C7.19742882,3.35055663 7.12729753,3.43277111 7.09764521,3.53121551 C7.00635785,3.83408511 6.94307039,4.02035176 6.90816639,4.08964296 C6.76318059,4.3750035 6.48701714,4.6856963 6.31633281,4.88313896 C6.1065253,5.1260307 5.87945759,5.27727921 5.63512965,5.33762964 C5.54511992,5.35986737 5.46976047,5.41947533 5.42911419,5.50058413 C5.38846791,5.58169293 5.38665989,5.67607106 5.42417146,5.75859229 L5.46291105,5.84502003 C5.54644051,6.02883726 5.7650066,6.11520064 5.95693677,6.04022749 C6.31211363,5.90164509 6.56986618,5.73996563 6.72981084,5.55518909 C6.87019392,5.39239204 7.31090475,5.03736776 7.61123249,4.52848724 C7.66032821,4.44503978 7.75314982,4.19097204 7.88854661,3.76591151 C7.94946744,3.57533007 7.84494759,3.37197154 7.65150633,3.30471525 L7.59473941,3.28497097 L7.59473941,3.28497097 Z M4.2401207,6.82031229 C4.55787249,6.82031229 4.8154612,6.57012901 4.8154612,6.26151229 C4.8154612,5.95289557 4.55787249,5.70271229 4.2401207,5.70271229 C3.92236891,5.70271229 3.6647802,5.95289557 3.6647802,6.26151229 C3.6647802,6.57012901 3.92236891,6.82031229 4.2401207,6.82031229 Z" id="形状"></path>
                    </g>
                </g>
            </g>
        </g>
    </g>
</svg>